<svg width="31" height="33" viewBox="0 0 31 33" fill="none" xmlns="http://www.w3.org/2000/svg">
<path d="M11.6869 6.88214C11.6869 9.01458 11.6869 11.1532 11.6994 13.2857C11.6994 15.1259 11.1025 16.9164 9.39283 17.8614C7.39717 18.9556 4.5622 18.6758 2.33651 18.4458C2.24947 18.4458 2.17486 18.4272 2.09404 18.421C2.16865 16.8853 2.13756 15.3311 2.06296 13.8017C1.9697 11.7252 3.22554 9.25083 5.45745 8.90268C7.87588 8.52344 9.98345 8.26232 11.1274 6.92566C11.1647 6.88836 11.202 6.84484 11.2331 6.80132C11.4009 6.57129 11.5812 6.3537 11.7615 6.12988C11.7056 6.37235 11.6869 6.62725 11.6869 6.87593V6.88214Z" fill="white"/>
<path d="M4.37218 32.3536C6.03835 32.4593 7.71695 32.4344 9.38311 32.4655C11.329 32.4966 13.3247 32.7391 15.2023 32.3971C17.9004 31.906 20.9344 30.1466 21.9353 27.5416C22.8616 25.1294 22.4264 22.2509 20.8287 20.2242C20.7168 20.0874 20.5986 19.9506 20.4681 19.8139C18.8516 18.0482 16.3462 17.1219 13.9588 17.4389C10.9933 17.8306 8.38217 20.162 7.61126 23.0529C7.13255 24.8559 7.54909 26.7707 7.26932 28.6047C7.03929 30.1217 5.73993 31.6759 4.36597 32.3536H4.37218Z" fill="white"/>
<path d="M21.0386 0C20.8894 0.453843 21.0696 0.944989 21.2624 1.38018C23.7368 6.89469 30.3641 10.6249 30.1341 17.2523C30.0284 20.2489 28.5363 23.7677 26.0308 25.5458C25.8505 25.6763 25.6827 25.7882 25.4713 25.8504C24.9926 24.9552 24.9429 23.6496 24.5387 22.6673C24.029 21.4301 23.3575 20.2178 22.4187 19.2604C21.5173 18.3465 20.392 17.818 19.4905 16.9228C17.6005 15.0328 16.4069 12.4465 16.2514 9.77317C16.0276 5.96835 17.93 2.18839 21.0448 0.0124341L21.0386 0Z" fill="white"/>
<path d="M3.83083 13.3046C3.83083 13.3046 3.74379 11.6447 5.44725 11.7255C5.44725 11.7255 6.06896 13.5409 3.83083 13.3046Z" fill="#10001F" stroke="black" stroke-width="0.261407" stroke-miterlimit="10"/>
<path d="M3.26491 27.3799C4.82376 27.3799 6.08745 26.1162 6.08745 24.5574C6.08745 22.9986 4.82376 21.7349 3.26491 21.7349C1.70607 21.7349 0.442383 22.9986 0.442383 24.5574C0.442383 26.1162 1.70607 27.3799 3.26491 27.3799Z" fill="white"/>
</svg>
