<svg width="30" height="31" viewBox="0 0 30 31" fill="none" xmlns="http://www.w3.org/2000/svg">
<g clip-path="url(#clip0_0_1974)">
<path d="M29.5 15.5001C29.5 23.5083 23.0081 30.0001 15 30.0001C6.99187 30.0001 0.5 23.5083 0.5 15.5001C0.5 7.49199 6.99187 1.00012 15 1.00012C23.0081 1.00012 29.5 7.49199 29.5 15.5001Z" stroke="white"/>
<path d="M19.8787 5.10559H16.5558C14.5839 5.10559 12.3906 5.93495 12.3906 8.7933C12.4002 9.78926 12.3906 10.7431 12.3906 11.8166H10.1094V15.4467H12.4612V25.8971H16.7828V15.3777H19.6352L19.8932 11.8064H16.7083C16.7083 11.8064 16.7154 10.2177 16.7083 9.75635C16.7083 8.6268 17.8837 8.69148 17.9543 8.69148C18.5137 8.69148 19.6011 8.69311 19.8803 8.69148V5.10559H19.8787Z" fill="white"/>
</g>
<defs>
<clipPath id="clip0_0_1974">
<rect width="30" height="30" fill="white" transform="translate(0 0.500122)"/>
</clipPath>
</defs>
</svg>
