<svg width="30" height="31" viewBox="0 0 30 31" fill="none" xmlns="http://www.w3.org/2000/svg">
<path d="M15 12.125C14.3325 12.125 13.68 12.3229 13.125 12.6938C12.5699 13.0646 12.1374 13.5917 11.8819 14.2084C11.6265 14.8251 11.5596 15.5037 11.6898 16.1584C11.8201 16.8131 12.1415 17.4145 12.6135 17.8865C13.0855 18.3585 13.6869 18.6799 14.3416 18.8102C14.9963 18.9404 15.6749 18.8735 16.2916 18.6181C16.9083 18.3626 17.4354 17.9301 17.8062 17.375C18.1771 16.82 18.375 16.1675 18.375 15.5C18.3741 14.6052 18.0182 13.7473 17.3855 13.1145C16.7527 12.4818 15.8948 12.1259 15 12.125ZM15 17.75C14.555 17.75 14.12 17.618 13.75 17.3708C13.38 17.1236 13.0916 16.7722 12.9213 16.361C12.751 15.9499 12.7064 15.4975 12.7932 15.061C12.88 14.6246 13.0943 14.2237 13.409 13.909C13.7237 13.5943 14.1246 13.38 14.561 13.2932C14.9975 13.2064 15.4499 13.251 15.861 13.4213C16.2722 13.5916 16.6236 13.88 16.8708 14.25C17.118 14.62 17.25 15.055 17.25 15.5C17.25 16.0967 17.0129 16.669 16.591 17.091C16.169 17.5129 15.5967 17.75 15 17.75ZM18.375 8.1875H11.625C10.5811 8.18862 9.58018 8.60382 8.842 9.342C8.10382 10.0802 7.68862 11.0811 7.6875 12.125V18.875C7.68862 19.9189 8.10382 20.9198 8.842 21.658C9.58018 22.3962 10.5811 22.8114 11.625 22.8125H18.375C19.4189 22.8114 20.4198 22.3962 21.158 21.658C21.8962 20.9198 22.3114 19.9189 22.3125 18.875V12.125C22.3114 11.0811 21.8962 10.0802 21.158 9.342C20.4198 8.60382 19.4189 8.18862 18.375 8.1875ZM21.1875 18.875C21.1875 19.6209 20.8912 20.3363 20.3637 20.8637C19.8363 21.3912 19.1209 21.6875 18.375 21.6875H11.625C10.8791 21.6875 10.1637 21.3912 9.63626 20.8637C9.10882 20.3363 8.8125 19.6209 8.8125 18.875V12.125C8.8125 11.3791 9.10882 10.6637 9.63626 10.1363C10.1637 9.60882 10.8791 9.3125 11.625 9.3125H18.375C19.1209 9.3125 19.8363 9.60882 20.3637 10.1363C20.8912 10.6637 21.1875 11.3791 21.1875 12.125V18.875ZM19.5 11.8438C19.5 12.0106 19.4505 12.1738 19.3578 12.3125C19.2651 12.4513 19.1333 12.5594 18.9791 12.6233C18.825 12.6871 18.6553 12.7038 18.4916 12.6713C18.328 12.6387 18.1776 12.5584 18.0596 12.4404C17.9416 12.3224 17.8613 12.172 17.8287 12.0084C17.7962 11.8447 17.8129 11.675 17.8767 11.5209C17.9406 11.3667 18.0487 11.2349 18.1875 11.1422C18.3262 11.0495 18.4894 11 18.6562 11C18.88 11 19.0946 11.0889 19.2529 11.2471C19.4111 11.4054 19.5 11.62 19.5 11.8438Z" fill="white"/>
<circle cx="15" cy="15.5" r="14.5" stroke="white"/>
</svg>
